<?xml version="1.0" encoding="UTF-8"?>
<svg xmlns="http://www.w3.org/2000/svg" xmlns:xlink="http://www.w3.org/1999/xlink" width="327px" height="390px" viewBox="0 0 327 389" version="1.1">
<g id="surface1">
<rect x="0" y="0" width="327" height="389" style="fill:rgb(100%,100%,100%);fill-opacity:1;stroke:none;"/>
<path style="fill-rule:nonzero;fill:rgb(100%,100%,100%);fill-opacity:1;stroke-width:7;stroke-linecap:butt;stroke-linejoin:miter;stroke:rgb(87.058824%,87.058824%,87.058824%);stroke-opacity:1;stroke-miterlimit:4;" d="M 183.826692 189.314267 L 64.485976 145.875884 L 96.294438 58.487408 L 215.635154 101.922799 Z M 183.826692 189.314267 " transform="matrix(1.308,0,0,1.305369,0,0)"/>
<path style="fill-rule:nonzero;fill:rgb(100%,100%,100%);fill-opacity:1;stroke-width:7;stroke-linecap:butt;stroke-linejoin:miter;stroke:rgb(87.058824%,87.058824%,87.058824%);stroke-opacity:1;stroke-miterlimit:4;" d="M 179.499355 150.499217 L 52.498447 150.499217 L 52.498447 57.4999 L 179.499355 57.4999 Z M 179.499355 150.499217 " transform="matrix(1.308,0,0,1.305369,0,0)"/>
<path style=" stroke:none;fill-rule:nonzero;fill:rgb(87.058824%,87.058824%,87.058824%);fill-opacity:1;" d="M 218.4375 179.488281 L 85.675781 179.488281 C 91.558594 157.296875 101.371094 116.832031 103.984375 112.261719 C 106.601562 107.691406 108.5625 103.125 114.449219 103.125 C 120.335938 103.125 124.261719 110.304688 124.261719 110.304688 L 145.1875 150.769531 C 145.1875 150.769531 149.113281 157.949219 152.382812 157.949219 C 155.652344 157.949219 160.230469 150.769531 160.230469 150.769531 L 168.730469 139.023438 C 168.730469 139.023438 171.347656 135.105469 174.617188 135.105469 C 177.886719 135.105469 181.8125 139.675781 181.8125 139.675781 Z M 218.4375 179.488281 "/>
<path style=" stroke:none;fill-rule:nonzero;fill:rgb(87.058824%,87.058824%,87.058824%);fill-opacity:1;" d="M 217.128906 108.34375 C 217.128906 98.972656 209.515625 91.375 200.125 91.375 C 190.734375 91.375 183.121094 98.972656 183.121094 108.34375 C 183.121094 117.71875 190.734375 125.316406 200.125 125.316406 C 209.515625 125.316406 217.128906 117.71875 217.128906 108.34375 Z M 217.128906 108.34375 "/>
</g>
</svg>
